<?xml version="1.0" standalone="no"?>
<!DOCTYPE svg PUBLIC "-//W3C//DTD SVG 20010904//EN"
 "http://www.w3.org/TR/2001/REC-SVG-20010904/DTD/svg10.dtd">
<svg version="1.0" xmlns="http://www.w3.org/2000/svg"
 width="300.000000pt" height="300.000000pt" viewBox="0 0 300.000000 300.000000"
 preserveAspectRatio="xMidYMid meet">

<g transform="translate(0.000000,300.000000) scale(0.100000,-0.100000)"
fill="#000000" stroke="none">
<path d="M248 2759 c-16 -9 -18 -26 -18 -134 l0 -124 137 -3 137 -3 12 -49 c7
-27 15 -63 18 -80 2 -17 7 -40 9 -51 3 -11 10 -40 16 -65 6 -25 40 -184 76
-355 59 -281 99 -466 155 -718 14 -61 20 -126 20 -208 0 -106 2 -121 20 -139
20 -20 33 -20 963 -20 902 0 945 1 960 18 14 15 17 40 17 130 l0 112 -832 0
c-885 0 -879 0 -886 47 -6 39 -41 28 858 284 234 67 514 147 622 178 110 32
205 65 217 75 21 19 21 27 21 418 l0 398 -1000 0 -1000 0 0 134 c0 109 -3 138
-16 150 -13 14 -50 16 -252 16 -142 0 -244 -5 -254 -11z m1285 -527 c21 -20
27 -35 27 -68 0 -85 -100 -126 -161 -65 -38 38 -39 87 -4 130 40 47 89 49 138
3z m452 1 c57 -58 12 -163 -70 -163 -84 0 -128 106 -67 162 45 43 94 43 137 1z
m-197 -333 c106 -25 217 -108 261 -195 19 -38 21 -51 12 -71 -19 -43 -55 -32
-95 30 -58 91 -135 137 -242 144 -106 7 -172 -16 -237 -81 -29 -29 -60 -67
-69 -84 -21 -40 -59 -45 -82 -11 -14 20 -13 25 11 71 84 154 269 236 441 197z"/>
<path d="M824 761 c-193 -88 -226 -342 -63 -471 119 -94 277 -78 378 36 50 57
71 117 66 191 -5 106 -60 189 -157 239 -60 31 -162 33 -224 5z"/>
<path d="M2244 761 c-136 -62 -197 -210 -147 -356 49 -144 233 -218 371 -149
94 47 162 151 162 249 0 98 -68 203 -162 251 -60 31 -162 33 -224 5z"/>
</g>
</svg>
